<?xml version="1.0" encoding="UTF-8"?>
<svg version="1.1" xmlns="http://www.w3.org/2000/svg" width="191" height="192">
<path d="M0 0 C1.14227554 -0.00832352 2.28455109 -0.01664703 3.46144104 -0.02522278 C7.23458274 -0.04929996 11.00755136 -0.0580933 14.78076172 -0.06469727 C17.41144868 -0.07366697 20.04213512 -0.08278888 22.67282104 -0.09205627 C28.18895103 -0.10940414 33.70503715 -0.11627848 39.22119141 -0.11914062 C45.57080926 -0.12276826 51.91994151 -0.15261332 58.26941121 -0.19454521 C64.40327736 -0.23361441 70.53691001 -0.24473704 76.67089462 -0.24586678 C79.26787824 -0.25005817 81.86486268 -0.26244864 84.46176529 -0.28338432 C88.10644254 -0.31042233 91.74980289 -0.30543429 95.39453125 -0.29296875 C96.98478371 -0.31522018 96.98478371 -0.31522018 98.60716248 -0.33792114 C110.78968749 -0.22004907 121.75260224 5.1027251 130.70654297 13.23217773 C137.71123816 20.47521794 143.67333189 30.87544048 143.73934937 41.14207458 C143.74794983 42.13855515 143.75655029 43.13503571 143.76541138 44.16171265 C143.7718013 45.80038803 143.7718013 45.80038803 143.77832031 47.47216797 C143.79058655 49.19955452 143.79058655 49.19955452 143.80310059 50.96183777 C143.82796747 54.78371664 143.84447776 58.60555821 143.85888672 62.42749023 C143.8642104 63.73366869 143.86953407 65.03984715 143.87501907 66.38560677 C143.89665209 71.88013352 143.91538263 77.3746574 143.92664146 82.86921597 C143.94283785 90.7200905 143.97590452 98.57046674 144.03304231 106.42115349 C144.07191241 111.95256576 144.09129469 117.48384579 144.09656203 123.01539093 C144.10019493 126.31245749 144.11454132 129.60887458 144.14466476 132.90582085 C144.17644835 136.5962842 144.17633182 140.2855087 144.16894531 143.97607422 C144.18535065 145.0503064 144.20175598 146.12453857 144.21865845 147.23132324 C144.11472641 159.99854398 138.3609612 171.07918371 129.71044922 180.30639648 C119.73100809 189.6420027 108.60039557 192.61261995 95.30102539 192.58105469 C94.18465195 192.58616562 93.0682785 192.59127655 91.91807556 192.59654236 C88.23813472 192.6104095 84.5583818 192.60948353 80.87841797 192.60717773 C78.31162955 192.61106658 75.74484176 192.61540164 73.17805481 192.62016296 C67.80072673 192.62761926 62.42347103 192.62747739 57.04614258 192.62207031 C50.85166071 192.61603678 44.65740635 192.62833071 38.46296328 192.64964038 C32.48020363 192.66945676 26.49756213 192.67242097 20.51476479 192.66890526 C17.98034443 192.66941725 15.44592035 192.67463198 12.91152 192.68471718 C9.36018965 192.6971138 5.80937926 192.69026973 2.25805664 192.67871094 C0.70145325 192.69017654 0.70145325 192.69017654 -0.88659668 192.70187378 C-13.47078171 192.61177283 -24.42160952 188.39978635 -33.96533203 180.08374023 C-41.62843506 172.16305391 -47.50538579 161.64354281 -47.5617218 150.4263916 C-47.56887711 149.44536469 -47.57603241 148.46433777 -47.58340454 147.45358276 C-47.58609344 146.38342926 -47.58878235 145.31327576 -47.59155273 144.21069336 C-47.59812393 143.07846344 -47.60469513 141.94623352 -47.61146545 140.7796936 C-47.63119342 137.02817721 -47.64286196 133.27670091 -47.65283203 129.52514648 C-47.65690756 128.24195023 -47.66098309 126.95875397 -47.66518211 125.63667297 C-47.68389338 119.54124974 -47.69845689 113.4458465 -47.70679408 107.35040045 C-47.71654325 100.34011464 -47.74280363 93.33014653 -47.78329498 86.31997252 C-47.81725586 80.2288495 -47.82895256 74.13785851 -47.83299828 68.04664612 C-47.83785463 65.46641389 -47.84944127 62.88618481 -47.86803627 60.30601501 C-47.89251841 56.68284225 -47.89144522 53.06048691 -47.88452148 49.43725586 C-47.89733154 48.3832962 -47.9101416 47.32933655 -47.92333984 46.24343872 C-47.82887602 32.59064234 -42.73732288 22.0850038 -33.46923828 12.23999023 C-28.71489052 7.78399223 -23.40651852 4.81400681 -17.41455078 2.30639648 C-16.60857452 1.96120468 -15.80259827 1.61601288 -14.97219849 1.26036072 C-9.96282561 -0.08287587 -5.16538924 0.00320176 0 0 Z " fill="#A37CF7" transform="translate(47.41455078125,-0.306396484375)"/>
<path d="M0 0 C2.20764702 1.27202519 4.4159934 2.54283733 6.625 3.8125 C8.41850772 4.87188932 10.21084758 5.93327167 12 7 C11.86914062 8.76782227 11.86914062 8.76782227 11 11 C8.45898438 12.84350586 8.45898438 12.84350586 5.09375 14.71484375 C4.49502075 15.05246231 3.8962915 15.39008087 3.27941895 15.7379303 C1.35954345 16.81677785 -0.56980719 17.87724306 -2.5 18.9375 C-3.76889431 19.64659752 -5.03713145 20.35687238 -6.3046875 21.06835938 C-8.75379204 22.44069556 -11.20820394 23.80263161 -13.66796875 25.15576172 C-15.70092831 26.28097981 -17.72649922 27.41986162 -19.73828125 28.58251953 C-20.51558594 29.03095215 -21.29289062 29.47938477 -22.09375 29.94140625 C-22.74021484 30.32111572 -23.38667969 30.7008252 -24.05273438 31.09204102 C-31.14667735 34.39976091 -40.11306104 33.91002945 -47.375 31.5 C-53.26463568 29.13393249 -64.11349302 24.77301395 -67 19 C-61.62483387 15.25729173 -56.15952687 11.92688556 -50.37890625 8.8515625 C-47.6288985 7.34462184 -44.91944243 5.79666475 -42.21484375 4.2109375 C-41.36712402 3.71424561 -40.5194043 3.21755371 -39.64599609 2.70581055 C-37.9447785 1.70601162 -36.24581737 0.70236164 -34.54931641 -0.30541992 C-33.76089355 -0.76795166 -32.9724707 -1.2304834 -32.16015625 -1.70703125 C-31.45511963 -2.1244458 -30.75008301 -2.54186035 -30.02368164 -2.97192383 C-20.20143593 -7.96184742 -8.87030504 -5.53025191 0 0 Z " fill="#DBD5FE" transform="translate(122,84)"/>
<path d="M0 0 C4.21944204 1.97056812 8.09161521 4.38617254 11.97851562 6.93896484 C14.05391318 8.24642022 16.16790855 9.39758486 18.34130859 10.53369141 C19.03925537 10.91017822 19.73720215 11.28666504 20.45629883 11.67456055 C21.78774405 12.3915415 23.1295074 13.08978407 24.48217773 13.76586914 C26.28271484 14.77978516 26.28271484 14.77978516 29.00146484 17.21337891 C29.79549918 20.24369646 29.49793533 22.00073441 29.00146484 25.21337891 C27.64599609 27.15869141 27.64599609 27.15869141 25.81396484 28.33837891 C25.22228516 28.75345703 24.63060547 29.16853516 24.02099609 29.59619141 C20.35844998 30.7154995 17.63509117 28.54939287 14.42333984 26.84619141 C13.54162109 26.34861328 12.65990234 25.85103516 11.75146484 25.33837891 C10.78080078 24.81244141 9.81013672 24.28650391 8.81005859 23.74462891 C7.14108259 22.8347004 5.48252669 21.90446473 3.84912109 20.93212891 C-3.12505155 17.18401309 -11.29136418 16.93946635 -18.99853516 18.21337891 C-23.36566106 19.70136113 -27.0982931 21.76937773 -30.99853516 24.21337891 C-31.75521484 24.65810547 -32.51189453 25.10283203 -33.29150391 25.56103516 C-36.6211603 27.52673592 -39.91904293 29.54287942 -43.20361328 31.58300781 C-45.72903357 33.14414945 -48.26898063 34.67950057 -50.81103516 36.21337891 C-51.63611572 36.7311792 -52.46119629 37.24897949 -53.3112793 37.7824707 C-59.28583218 41.35306869 -59.28583218 41.35306869 -62.92822266 40.63916016 C-65.34248461 38.97650805 -67.19949979 37.54546179 -68.99853516 35.21337891 C-69.37859985 32.26787751 -69.4488637 30.81080617 -67.63525391 28.40478516 C-62.98945045 24.52242034 -58.25548665 21.51644646 -52.88525391 18.72509766 C-50.0524987 17.24163857 -47.31021978 15.65832845 -44.56103516 14.02587891 C-43.56716797 13.45353516 -42.57330078 12.88119141 -41.54931641 12.29150391 C-38.78061779 10.69184728 -36.06862807 9.01234037 -33.35400391 7.32275391 C-22.72475552 0.87138063 -12.63315633 -4.97239552 0 0 Z " fill="#DBD4FD" transform="translate(114.99853515625,58.78662109375)"/>
<path d="M0 0 C2.7096814 1.44516341 4.71937891 2.78450055 6.875 5 C7.5 7.9375 7.5 7.9375 6.875 11 C3.70142511 15.01363884 0.37838339 16.76202141 -4.125 19 C-6.20046745 20.2495433 -8.26259816 21.52144381 -10.3125 22.8125 C-15.28133593 25.91437466 -20.32983963 28.79874621 -25.49609375 31.55859375 C-28.17390004 33.02681146 -30.77260366 34.58995051 -33.375 36.1875 C-41.81359366 41.21896195 -48.23475837 43.05318362 -58.125 42 C-61.43550908 41.1241748 -64.16142098 39.69817782 -67.125 38 C-68.29909361 37.35216533 -69.47360762 36.70509225 -70.6484375 36.05859375 C-81.96916008 29.75064566 -81.96916008 29.75064566 -85.125 27 C-85.125 26.34 -85.125 25.68 -85.125 25 C-86.445 24.67 -87.765 24.34 -89.125 24 C-89.4375 21.75 -89.4375 21.75 -89.125 19 C-86.8125 16.6875 -86.8125 16.6875 -84.125 15 C-83.135 15 -82.145 15 -81.125 15 C-81.125 14.34 -81.125 13.68 -81.125 13 C-82.115 12.67 -83.105 12.34 -84.125 12 C-81.125 11 -81.125 11 -79.33496094 11.77270508 C-78.68301758 12.18415771 -78.03107422 12.59561035 -77.359375 13.01953125 C-76.63363281 13.46490234 -75.90789062 13.91027344 -75.16015625 14.36914062 C-74.40605469 14.84544922 -73.65195313 15.32175781 -72.875 15.8125 C-66.06800901 20.09508334 -60.020625 23.27524493 -51.75 23.3125 C-50.46996094 23.33763672 -50.46996094 23.33763672 -49.1640625 23.36328125 C-39.39460569 22.195467 -31.32270198 16.94188802 -23 12.0625 C-21.75174256 11.33843281 -20.50304702 10.61512034 -19.25390625 9.89257812 C-15.08546584 7.47833764 -10.91721378 5.06385929 -6.77490234 2.60498047 C-2.34838555 0 -2.34838555 0 0 0 Z " fill="#9D74F3" transform="translate(137.125,93)"/>
<path d="M0 0 C4.57995227 1.44630072 4.57995227 1.44630072 6.375 3.8125 C7.20524904 6.71837165 7.04238674 8.15080957 6 11 C1.93814556 15.76826391 -2.86556343 18.44617036 -8.3125 21.4375 C-10.18839042 22.48408269 -12.06335263 23.53233043 -13.9375 24.58203125 C-15.41283203 25.40695068 -15.41283203 25.40695068 -16.91796875 26.24853516 C-20.11681036 28.0663813 -23.27958991 29.9362342 -26.4375 31.82421875 C-27.50057373 32.457229 -28.56364746 33.09023926 -29.65893555 33.74243164 C-31.71950936 34.97252258 -33.77587282 36.20970154 -35.82739258 37.45483398 C-43.16646409 41.81098826 -49.32495516 44.27713976 -58 44.3125 C-58.94875 44.32925781 -59.8975 44.34601563 -60.875 44.36328125 C-69.23758012 43.39113131 -76.11206522 38.81536375 -83.1875 34.5625 C-84.15880859 33.98951172 -85.13011719 33.41652344 -86.13085938 32.82617188 C-95.9338063 26.98740499 -95.9338063 26.98740499 -99 24 C-99 23.01 -99 22.02 -99 21 C-94.87685667 21.91625407 -91.17032322 22.7922464 -88.16796875 25.890625 C-85.84826438 28.14763465 -83.67609806 29.44578441 -80.8125 30.9375 C-79.84957031 31.44539063 -78.88664062 31.95328125 -77.89453125 32.4765625 C-76.93933594 32.97929688 -75.98414062 33.48203125 -75 34 C-72.61968007 35.33070202 -70.24619387 36.67265826 -67.875 38.01953125 C-62.23171685 40.97049806 -56.18403254 40.79518378 -50 40 C-41.95486701 37.04339169 -34.79040256 32.37674 -27.65234375 27.69140625 C-23.23906497 24.87704732 -18.61617237 22.46150403 -14 20 C-12.35159732 19.1089033 -10.70558126 18.21337107 -9.0625 17.3125 C-8.02802734 16.74982422 -8.02802734 16.74982422 -6.97265625 16.17578125 C-4.91776822 15.00442929 -4.91776822 15.00442929 -2.87109375 13.35546875 C-1 12 -1 12 1 12 C1.19814261 5.91591528 1.19814261 5.91591528 0 0 Z " fill="#C8AFFB" transform="translate(142,94)"/>
<path d="M0 0 C0.495 1.485 0.495 1.485 1 3 C-0.66666667 4.66666667 -2.33333333 6.33333333 -4 8 C-4.45375 8.53625 -4.9075 9.0725 -5.375 9.625 C-7 11 -7 11 -9.98046875 12.234375 C-14.86591021 14.28314898 -19.36426795 16.96614416 -23.9375 19.625 C-25.80326865 20.6981197 -27.66915533 21.77103422 -29.53515625 22.84375 C-32.1657551 24.36142089 -34.79515531 25.88103394 -37.42138672 27.40625 C-39.56896918 28.65224647 -41.72147364 29.88931501 -43.875 31.125 C-44.49753662 31.49061035 -45.12007324 31.8562207 -45.76147461 32.23291016 C-53.87413819 36.86966465 -63.02376987 38.83649874 -72.2109375 36.41796875 C-74.5793032 35.42434406 -76.75835287 34.25693557 -79 33 C-80.25360267 32.32495676 -81.50753912 31.65053319 -82.76171875 30.9765625 C-103.04010678 19.93983983 -103.04010678 19.93983983 -107 14 C-106.67 13.01 -106.34 12.02 -106 11 C-105.44820068 11.75845215 -104.89640137 12.5169043 -104.32788086 13.29833984 C-101.93254397 16.0782872 -99.95030473 17.47412749 -96.75390625 19.2265625 C-95.75166016 19.7834375 -94.74941406 20.3403125 -93.71679688 20.9140625 C-92.15541992 21.76097656 -92.15541992 21.76097656 -90.5625 22.625 C-88.50110966 23.76267224 -86.43990529 24.90068153 -84.37890625 26.0390625 C-83.4669751 26.53615723 -82.55504395 27.03325195 -81.61547852 27.54541016 C-79.81974263 28.54410281 -78.04371902 29.57882655 -76.28588867 30.64282227 C-72.30407539 33.00690429 -68.83430725 33.15780889 -64.25 33.1875 C-62.77273437 33.20876953 -62.77273437 33.20876953 -61.265625 33.23046875 C-53.14199353 32.65715026 -47.38128118 29.85093224 -40.5 25.75 C-39.60796875 25.22784912 -38.7159375 24.70569824 -37.796875 24.16772461 C-35.87814165 23.04421215 -33.9615394 21.9170538 -32.046875 20.78662109 C-28.86797658 18.92258435 -25.6710186 17.09309801 -22.46875 15.26953125 C-20.31236537 14.03408913 -18.15611257 12.79841687 -16 11.5625 C-14.97970703 10.9840332 -13.95941406 10.40556641 -12.90820312 9.80957031 C-7.9717739 6.95678499 -3.74877288 4.32239977 0 0 Z " fill="#5D35B5" transform="translate(148,104)"/>
<path d="M0 0 C0.99 0.495 0.99 0.495 2 1 C1.86914062 2.76782227 1.86914062 2.76782227 1 5 C-1.54101562 6.84350586 -1.54101562 6.84350586 -4.90625 8.71484375 C-5.50497925 9.05246231 -6.1037085 9.39008087 -6.72058105 9.7379303 C-8.64045655 10.81677785 -10.56980719 11.87724306 -12.5 12.9375 C-13.76889431 13.64659752 -15.03713145 14.35687238 -16.3046875 15.06835938 C-18.75379204 16.44069556 -21.20820394 17.80263161 -23.66796875 19.15576172 C-25.70092831 20.28097981 -27.72649922 21.41986162 -29.73828125 22.58251953 C-30.51558594 23.03095215 -31.29289062 23.47938477 -32.09375 23.94140625 C-32.74021484 24.32111572 -33.38667969 24.7008252 -34.05273438 25.09204102 C-41.14667735 28.39976091 -50.11306104 27.91002945 -57.375 25.5 C-63.26463568 23.13393249 -74.11349302 18.77301395 -77 13 C-75.68 12.01 -74.36 11.02 -73 10 C-72.34 10.33 -71.68 10.66 -71 11 C-71.33 11.66 -71.66 12.32 -72 13 C-70.9275 13.598125 -69.855 14.19625 -68.75 14.8125 C-66.01843904 16.38051572 -63.37389683 17.91097079 -61 20 C-61 20.66 -61 21.32 -61 22 C-59.7934375 21.9690625 -59.7934375 21.9690625 -58.5625 21.9375 C-56 22 -56 22 -55 23 C-42.91246902 25.08872535 -36.63338145 22.14050799 -26.4296875 16.0390625 C-22.52604123 13.71821586 -18.58311503 11.4762117 -14.625 9.25 C-13.95919922 8.87343262 -13.29339844 8.49686523 -12.60742188 8.10888672 C-9.62890522 6.43328401 -6.66908258 4.8409779 -3.5859375 3.359375 C-0.88787736 2.26209756 -0.88787736 2.26209756 0 0 Z " fill="#CDBBFB" transform="translate(132,90)"/>
<path d="M0 0 C0.66 0.66 1.32 1.32 2 2 C1.505 2.391875 1.01 2.78375 0.5 3.1875 C-1.16898287 4.93182437 -1.16898287 4.93182437 -1.5625 7.375 C-0.69821703 11.40832053 1.7198823 12.60824751 5 15 C10.93847771 12.91611229 16.251207 9.51975454 21.66992188 6.36914062 C22.84458008 5.70108398 22.84458008 5.70108398 24.04296875 5.01953125 C24.75477295 4.60807861 25.46657715 4.19662598 26.19995117 3.77270508 C26.79396729 3.5177124 27.3879834 3.26271973 28 3 C28.66 3.33 29.32 3.66 30 4 C28.77103131 7.68690606 27.79912598 7.9912398 24.5 9.875 C23.60023437 10.39449219 22.70046875 10.91398437 21.7734375 11.44921875 C18.52999108 13.26280781 15.28185484 15.06638421 12.0078125 16.82421875 C9.87472472 18.07336159 7.94960118 19.48315782 6 21 C6.66 21.33 7.32 21.66 8 22 C8 22.66 8 23.32 8 24 C6.35 24.33 4.7 24.66 3 25 C2.67 25.99 2.34 26.98 2 28 C1.34 28 0.68 28 0 28 C0.33 29.32 0.66 30.64 1 32 C0.01 32 -0.98 32 -2 32 C-2.1875 29.1875 -2.1875 29.1875 -2 26 C-0.5 24.375 -0.5 24.375 1 23 C1 21.68 1 20.36 1 19 C1.66 19 2.32 19 3 19 C3 18.34 3 17.68 3 17 C2.2575 16.773125 1.515 16.54625 0.75 16.3125 C-2.6085043 14.70957749 -4.02831528 13.14009048 -6 10 C-6.25 7.1875 -6.25 7.1875 -6 5 C-5.38125 4.731875 -4.7625 4.46375 -4.125 4.1875 C-1.7004767 3.04443152 -1.7004767 3.04443152 0 0 Z " fill="#A88CF3" transform="translate(48,84)"/>
<path d="M0 0 C1.06408081 0.00132935 1.06408081 0.00132935 2.1496582 0.00268555 C8.02392859 0.13498591 12.2810138 1.35420662 17.25 4.375 C18.260625 4.890625 19.27125 5.40625 20.3125 5.9375 C20.951875 6.411875 21.59125 6.88625 22.25 7.375 C22.25 8.365 22.25 9.355 22.25 10.375 C19.00191676 9.7356714 16.70076601 8.50506633 13.875 6.8125 C6.5196417 3.05309465 -1.53302987 3.13899151 -9.375 5.4375 C-11.50441089 6.65993958 -13.62331133 7.90104974 -15.7265625 9.16796875 C-17.34691406 10.13669922 -17.34691406 10.13669922 -19 11.125 C-20.01578125 11.75921875 -21.0315625 12.3934375 -22.078125 13.046875 C-24.75 14.375 -24.75 14.375 -27.75 13.375 C-20.55720237 5.22316269 -10.9082238 -0.0243573 0 0 Z " fill="#9F83EC" transform="translate(103.75,75.625)"/>
<path d="M0 0 C-1.0625 1.4375 -1.0625 1.4375 -3 3 C-4.03125 3.144375 -5.0625 3.28875 -6.125 3.4375 C-16.24162806 4.90604278 -26.25228023 11.06832973 -32.5 19.125 C-34.45750376 21.98174918 -35.90049096 24.70147289 -37 28 C-37.7425 29.670625 -37.7425 29.670625 -38.5 31.375 C-39.56545415 33.94984753 -40.37029172 36.21517605 -41.0625 38.875 C-41.371875 39.90625 -41.68125 40.9375 -42 42 C-42.99 42.495 -42.99 42.495 -44 43 C-43.4648337 30.18276701 -38.11054911 19.54924634 -28.75 10.75 C-20.35892027 3.64659018 -10.98142695 -0.37866989 0 0 Z " fill="#CEC4F6" transform="translate(44,0)"/>
<path d="M0 0 C5.37626692 2.43453597 10.01890684 5.55961027 13.3125 10.5 C13.23748455 14.62584973 12.97011942 16.76501359 10.1875 19.875 C6.84672786 21.76326251 4.11407771 22.20183704 0.3125 22.5 C2.56990623 20.16475218 4.5930761 18.31294927 7.3125 16.5 C7.88998803 14.53638136 7.88998803 14.53638136 8 12.375 C8.103125 11.09625 8.20625 9.8175 8.3125 8.5 C7.673125 8.273125 7.03375 8.04625 6.375 7.8125 C2.17929739 6.01434174 -1.72650556 3.76095979 -5.6875 1.5 C-2.6875 -0.5 -2.6875 -0.5 0 0 Z " fill="#B094F8" transform="translate(135.6875,67.5)"/>
<path d="M0 0 C-2.36333766 2.63454034 -4.81124725 4.11571809 -7.9375 5.75 C-11.94403673 7.88471642 -15.89753316 10.07640017 -19.8125 12.375 C-20.79605469 12.94992188 -21.77960938 13.52484375 -22.79296875 14.1171875 C-24.48453711 15.11028854 -26.17556833 16.10433722 -27.86181641 17.10644531 C-29.77877702 18.24474628 -31.7014532 19.37287342 -33.625 20.5 C-34.53149292 21.04406494 -34.53149292 21.04406494 -35.45629883 21.59912109 C-36.93654606 22.46124078 -38.4653145 23.23899893 -40 24 C-40.66 23.67 -41.32 23.34 -42 23 C-41.505 21.515 -41.505 21.515 -41 20 C-40.01 20 -39.02 20 -38 20 C-37.67 19.34 -37.34 18.68 -37 18 C-36.01 18 -35.02 18 -34 18 C-33.79375 17.360625 -33.5875 16.72125 -33.375 16.0625 C-32 14 -32 14 -29 13.375 C-27.515 13.189375 -27.515 13.189375 -26 13 C-25.34 12.34 -24.68 11.68 -24 11 C-23.34 11.33 -22.68 11.66 -22 12 C-21.67 11.01 -21.34 10.02 -21 9 C-18.78515625 7.578125 -18.78515625 7.578125 -16.0625 6.25 C-15.16660156 5.80140625 -14.27070312 5.3528125 -13.34765625 4.890625 C-12.18556641 4.44976562 -12.18556641 4.44976562 -11 4 C-10.34 4.33 -9.68 4.66 -9 5 C-9 4.01 -9 3.02 -9 2 C-5.86501708 0.14223235 -3.62528568 -0.20140476 0 0 Z " fill="#9F82EF" transform="translate(91,61)"/>
<path d="M0 0 C4.57995227 1.44630072 4.57995227 1.44630072 6.375 3.8125 C7.20524904 6.71837165 7.04238674 8.15080957 6 11 C1.68210741 16.65792822 -4.87364441 19.60949699 -11 23 C-11.33 22.34 -11.66 21.68 -12 21 C-12.66 20.67 -13.32 20.34 -14 20 C-13.09507812 19.51080078 -13.09507812 19.51080078 -12.171875 19.01171875 C-10.97304687 18.35623047 -10.97304687 18.35623047 -9.75 17.6875 C-8.96109375 17.25824219 -8.1721875 16.82898438 -7.359375 16.38671875 C-4.96827026 15.0465516 -4.96827026 15.0465516 -2.828125 13.33203125 C-1 12 -1 12 1 12 C1.19814261 5.91591528 1.19814261 5.91591528 0 0 Z " fill="#B496FC" transform="translate(142,94)"/>
<path d="M0 0 C5.62450434 1.24988985 8.93192994 2.93192994 13 7 C14.96879323 8.06011943 16.96435867 9.07470849 19 10 C18.01 11.485 18.01 11.485 17 13 C13.36592837 11.64293196 10.12987933 10.00749128 6.8125 8 C5.95269531 7.484375 5.09289063 6.96875 4.20703125 6.4375 C2 5 2 5 0 3 C0 2.01 0 1.02 0 0 Z " fill="#C0A2FC" transform="translate(43,115)"/>
<path d="M0 0 C0.66 0.33 1.32 0.66 2 1 C-3.41587566 4.77105416 -8.92193545 8.12146372 -14.75390625 11.20703125 C-17.32882282 12.62927758 -19.83321149 14.10081607 -22.33984375 15.63671875 C-23.47776367 16.32846191 -23.47776367 16.32846191 -24.63867188 17.03417969 C-26.15265504 17.95839116 -27.66068948 18.89242999 -29.16210938 19.83691406 C-30.20915039 20.47258301 -30.20915039 20.47258301 -31.27734375 21.12109375 C-32.20921509 21.70008423 -32.20921509 21.70008423 -33.15991211 22.29077148 C-35.47529521 23.18319392 -36.69772931 22.80431587 -39 22 C-38.49364014 21.72438232 -37.98728027 21.44876465 -37.46557617 21.16479492 C-35.03815698 19.84156641 -32.61260183 18.51497095 -30.1875 17.1875 C-29.29562988 16.69991211 -28.40375977 16.21232422 -27.48486328 15.70996094 C-22.7891921 13.1297767 -18.12632821 10.50800045 -13.51171875 7.78515625 C-12.64844971 7.27637939 -11.78518066 6.76760254 -10.89575195 6.2434082 C-9.23256603 5.25806116 -7.57343104 4.26583992 -5.91870117 3.26635742 C-5.16951416 2.82267822 -4.42032715 2.37899902 -3.6484375 1.921875 C-2.66109619 1.32777832 -2.66109619 1.32777832 -1.65380859 0.72167969 C-1.10805176 0.48352539 -0.56229492 0.24537109 0 0 Z " fill="#805BCF" transform="translate(135,93)"/>
<path d="M0 0 C0.66 0.66 1.32 1.32 2 2 C1.505 2.391875 1.01 2.78375 0.5 3.1875 C-1.15223943 4.92904253 -1.15223943 4.92904253 -1.625 7.3125 C-0.6367339 11.56204421 2.6028374 13.47812674 6 16 C5.01 16.66 4.02 17.32 3 18 C-4.01834862 13.63302752 -4.01834862 13.63302752 -6 10 C-6.1875 7.25 -6.1875 7.25 -6 5 C-5.38125 4.731875 -4.7625 4.46375 -4.125 4.1875 C-1.7004767 3.04443152 -1.7004767 3.04443152 0 0 Z " fill="#B49DF5" transform="translate(48,84)"/>
<path d="M0 0 C0.66 0.33 1.32 0.66 2 1 C1.67 1.66 1.34 2.32 1 3 C2.0725 3.598125 3.145 4.19625 4.25 4.8125 C6.98156096 6.38051572 9.62610317 7.91097079 12 10 C12 10.66 12 11.32 12 12 C13.32 12.33 14.64 12.66 16 13 C16 13.66 16 14.32 16 15 C11.28914613 13.62749022 7.3165464 11.59889808 3.1875 9 C2.60291016 8.64421875 2.01832031 8.2884375 1.41601562 7.921875 C-2.87008929 5.25982143 -2.87008929 5.25982143 -4 3 C-2.68 2.01 -1.36 1.02 0 0 Z " fill="#C6B2FA" transform="translate(59,100)"/>
<path d="M0 0 C0.67546875 0.42152344 1.3509375 0.84304687 2.046875 1.27734375 C3.38492188 2.09912109 3.38492188 2.09912109 4.75 2.9375 C5.63171875 3.48277344 6.5134375 4.02804688 7.421875 4.58984375 C9.68399917 5.82715712 11.48566325 6.53590513 14 7 C14 7.66 14 8.32 14 9 C15.32 9.66 16.64 10.32 18 11 C17.01 12.485 17.01 12.485 16 14 C15.4225 13.505 14.845 13.01 14.25 12.5 C11.89599371 10.63019987 11.89599371 10.63019987 8 11 C7.67 10.01 7.34 9.02 7 8 C5.13977928 6.76722873 5.13977928 6.76722873 2.9375 5.8125 C2.20402344 5.46832031 1.47054687 5.12414062 0.71484375 4.76953125 C0.14894531 4.51558594 -0.41695313 4.26164062 -1 4 C-0.67 2.68 -0.34 1.36 0 0 Z " fill="#A58DF0" transform="translate(126,83)"/>
<path d="M0 0 C1.32 0 2.64 0 4 0 C4 0.99 4 1.98 4 3 C4.66 3 5.32 3 6 3 C5.625 4.9375 5.625 4.9375 5 7 C2.29816945 8.35091528 -0.11808206 8.33858058 -3.125 8.5625 C-4.22070312 8.64628906 -5.31640625 8.73007813 -6.4453125 8.81640625 C-7.28835937 8.87699219 -8.13140625 8.93757812 -9 9 C-8.67 8.34 -8.34 7.68 -8 7 C-3.52459016 5.73770492 -3.52459016 5.73770492 -1 7 C-1.020625 6.030625 -1.04125 5.06125 -1.0625 4.0625 C-1 1 -1 1 0 0 Z " fill="#8B5BE4" transform="translate(158,182)"/>
<path d="M0 0 C0.99 0.33 1.98 0.66 3 1 C1.53967505 6.31027254 -0.98320986 10.46330032 -4 15 C-6.01136276 12.44008376 -7.62845496 9.95409701 -9 7 C-7.02 7 -5.04 7 -3 7 C-2.01 4.69 -1.02 2.38 0 0 Z " fill="#9061EA" transform="translate(185,161)"/>
<path d="M0 0 C0.5775 0.226875 1.155 0.45375 1.75 0.6875 C-1.20267206 3.92137892 -4.12922748 5.90995249 -8 7.9375 C-8.98484375 8.45828125 -9.9696875 8.9790625 -10.984375 9.515625 C-12.10585937 10.09570312 -12.10585937 10.09570312 -13.25 10.6875 C-13.25 10.0275 -13.25 9.3675 -13.25 8.6875 C-13.91 8.3575 -14.57 8.0275 -15.25 7.6875 C-14.64671875 7.36136719 -14.0434375 7.03523438 -13.421875 6.69921875 C-12.62265625 6.26222656 -11.8234375 5.82523437 -11 5.375 C-10.21109375 4.94574219 -9.4221875 4.51648438 -8.609375 4.07421875 C-6.21577266 2.73737616 -6.21577266 2.73737616 -4.09375 1 C-2.25 -0.3125 -2.25 -0.3125 0 0 Z " fill="#BE9EFC" transform="translate(143.25,106.3125)"/>
<path d="M0 0 C0.33 0.66 0.66 1.32 1 2 C0.10796875 2.12117188 -0.7840625 2.24234375 -1.703125 2.3671875 C-2.87359375 2.53476562 -4.0440625 2.70234375 -5.25 2.875 C-6.41015625 3.03742187 -7.5703125 3.19984375 -8.765625 3.3671875 C-11.61480897 3.92463654 -13.48369473 4.65197932 -16 6 C-18.75 6.125 -18.75 6.125 -21 6 C-15.70936338 -0.61329578 -7.79221245 -0.32467552 0 0 Z " fill="#9474EE" transform="translate(109,55)"/>
<path d="M0 0 C2.0625 1.75 2.0625 1.75 4 4 C4.125 6 4.125 6 3 8 C0.00254723 10.45246136 -1.97875396 11.911196 -5.875 12.25 C-6.57625 12.1675 -7.2775 12.085 -8 12 C-5.74259377 9.66475218 -3.7194239 7.81294927 -1 6 C-0.26656572 2.93443402 -0.26656572 2.93443402 0 0 Z " fill="#BEA6FA" transform="translate(144,78)"/>
<path d="M0 0 C0.99 0.33 1.98 0.66 3 1 C3.103125 1.61875 3.20625 2.2375 3.3125 2.875 C3.539375 3.57625 3.76625 4.2775 4 5 C4.969375 5.45375 5.93875 5.9075 6.9375 6.375 C10 8 10 8 11.3125 11.0625 C11.539375 12.031875 11.76625 13.00125 12 14 C12.33 14.66 12.66 15.32 13 16 C7.0629956 13.43688797 2.98476196 8.3976813 0.5625 2.5 C0.376875 1.675 0.19125 0.85 0 0 Z " fill="#BCA3EF" transform="translate(5,166)"/>
<path d="M0 0 C1.9375 0.375 1.9375 0.375 4 1 C4.33 1.66 4.66 2.32 5 3 C2.88002166 4.19733988 0.75486324 5.38298713 -1.375 6.5625 C-1.97828125 6.90474609 -2.5815625 7.24699219 -3.203125 7.59960938 C-4.76978241 8.46127095 -6.38290862 9.23718183 -8 10 C-8.66 9.67 -9.32 9.34 -10 9 C-9.67 8.01 -9.34 7.02 -9 6 C-8.01 6 -7.02 6 -6 6 C-5.67 5.34 -5.34 4.68 -5 4 C-4.01 4 -3.02 4 -2 4 C-1.34 2.68 -0.68 1.36 0 0 Z " fill="#A98EEF" transform="translate(59,75)"/>
<path d="M0 0 C6.20970773 -0.33266291 10.28264895 0.54970669 16 3 C12.68735796 5.20842803 12.16548604 5.19725756 8.4375 4.6875 C7.65246094 4.58824219 6.86742187 4.48898438 6.05859375 4.38671875 C4 4 4 4 2 3 C2 2.34 2 1.68 2 1 C1.34 0.67 0.68 0.34 0 0 Z " fill="#BBA3F3" transform="translate(147,0)"/>
<path d="M0 0 C0.33 0.99 0.66 1.98 1 3 C-0.66666667 4.66666667 -2.33333333 6.33333333 -4 8 C-4.495 8.61875 -4.99 9.2375 -5.5 9.875 C-7 11 -7 11 -9.6875 10.6875 C-10.450625 10.460625 -11.21375 10.23375 -12 10 C-9.5105071 7.93727731 -7.11146757 6.06480673 -4.3125 4.4375 C-1.74137316 3.06034626 -1.74137316 3.06034626 0 0 Z " fill="#643ABE" transform="translate(148,104)"/>
<path d="M0 0 C0.8125 1.6875 0.8125 1.6875 1 4 C-2.94535598 8.90180591 -7.81931251 11.81140625 -14 13 C-12.16384306 9.78672535 -10.27937334 8.53942365 -7 7.0625 C-3.33171932 5.36996608 -1.6824512 3.78551519 0 0 Z " fill="#9770EE" transform="translate(143,100)"/>
<path d="M0 0 C0.33 0.99 0.66 1.98 1 3 C1.66 3 2.32 3 3 3 C3.39036513 4.60049704 3.76178619 6.20562371 4.125 7.8125 C4.33382813 8.70582031 4.54265625 9.59914062 4.7578125 10.51953125 C5 13 5 13 3 16 C0.89424625 10.47239641 -0.37851209 5.93002267 0 0 Z " fill="#BCA3F1" transform="translate(0,148)"/>
<path d="M0 0 C3.14737182 0.69941596 6.02588876 1.76078698 9 3 C8.34 4.32 7.68 5.64 7 7 C4.08482708 5.92598892 2.22189824 5.22189824 0 3 C0 2.01 0 1.02 0 0 Z " fill="#B799FB" transform="translate(43,115)"/>
<path d="M0 0 C0 0.66 0 1.32 0 2 C1.32 2.66 2.64 3.32 4 4 C3.01 5.485 3.01 5.485 2 7 C1.4225 6.505 0.845 6.01 0.25 5.5 C-2.10400629 3.63019987 -2.10400629 3.63019987 -6 4 C-6 3.01 -6 2.02 -6 1 C-3 0 -3 0 0 0 Z " fill="#AE8BF9" transform="translate(140,90)"/>
<path d="M0 0 C1.82421875 0.99609375 1.82421875 0.99609375 3.6875 2.4375 C4.31011719 2.91058594 4.93273438 3.38367188 5.57421875 3.87109375 C6.27998047 4.42990234 6.27998047 4.42990234 7 5 C6.01 5.66 5.02 6.32 4 7 C-1.875 3.25 -1.875 3.25 -3 1 C-2.01 0.67 -1.02 0.34 0 0 Z " fill="#BEA7FA" transform="translate(47,95)"/>
<path d="M0 0 C0.33 0 0.66 0 1 0 C1.36923077 7.50769231 1.36923077 7.50769231 -0.5 10 C-0.995 10.33 -1.49 10.66 -2 11 C-2.66 10.67 -3.32 10.34 -4 10 C-4 6 -4 6 -2.5625 4.4375 C-2.046875 3.963125 -1.53125 3.48875 -1 3 C-0.67 2.01 -0.34 1.02 0 0 Z " fill="#844CE6" transform="translate(189,148)"/>
<path d="M0 0 C0.66 0.33 1.32 0.66 2 1 C1.75390625 2.859375 1.75390625 2.859375 1 5 C-0.84765625 6.265625 -0.84765625 6.265625 -3.0625 7.25 C-4.16271484 7.75273438 -4.16271484 7.75273438 -5.28515625 8.265625 C-6.13400391 8.62914063 -6.13400391 8.62914063 -7 9 C-7.33 8.34 -7.66 7.68 -8 7 C-7.50628906 6.66226563 -7.01257813 6.32453125 -6.50390625 5.9765625 C-5.86324219 5.53054687 -5.22257812 5.08453125 -4.5625 4.625 C-3.92441406 4.18414062 -3.28632813 3.74328125 -2.62890625 3.2890625 C-0.86259072 2.07839147 -0.86259072 2.07839147 0 0 Z " fill="#C1A9FC" transform="translate(132,90)"/>
<path d="M0 0 C0.66 0.66 1.32 1.32 2 2 C1.625 4.125 1.625 4.125 1 6 C3.475 6.99 3.475 6.99 6 8 C6 8.66 6 9.32 6 10 C2.62496331 8.8141763 0.35277269 7.72426311 -2 5 C-1.34 3.35 -0.68 1.7 0 0 Z " fill="#AC8FED" transform="translate(20,177)"/>
<path d="M0 0 C1.4391134 0.28359887 2.87625518 0.57721399 4.3125 0.875 C5.11300781 1.03742188 5.91351563 1.19984375 6.73828125 1.3671875 C9 2 9 2 12 4 C10.5629191 4.05422947 9.12524538 4.09289723 7.6875 4.125 C6.88699219 4.14820313 6.08648437 4.17140625 5.26171875 4.1953125 C3 4 3 4 0 2 C0 1.34 0 0.68 0 0 Z " fill="#562EAD" transform="translate(69,135)"/>
<path d="M0 0 C4.82360189 -0.19294408 8.49646738 0.24252386 13 2 C10 4 10 4 7.51953125 3.5390625 C6.62621094 3.23742187 5.73289062 2.93578125 4.8125 2.625 C3.91144531 2.32851562 3.01039062 2.03203125 2.08203125 1.7265625 C1.39496094 1.48679687 0.70789063 1.24703125 0 1 C0 0.67 0 0.34 0 0 Z " fill="#997CE7" transform="translate(107,77)"/>
<path d="M0 0 C0.33 0.66 0.66 1.32 1 2 C-1.10515339 5.72450216 -2.24267224 7.6795921 -6.25 9.375 C-7.61125 9.684375 -7.61125 9.684375 -9 10 C-7.66195697 5.98587091 -5.47584633 5.26994046 -2 3 C-1.34 2.01 -0.68 1.02 0 0 Z " fill="#865FD6" transform="translate(149,82)"/>
<path d="M0 0 C1.32 0.66 2.64 1.32 4 2 C3.67 3.32 3.34 4.64 3 6 C1.68 6 0.36 6 -1 6 C-1.33 5.01 -1.66 4.02 -2 3 C-1.34 2.01 -0.68 1.02 0 0 Z " fill="#854CEB" transform="translate(170,177)"/>
<path d="M0 0 C0.66 0 1.32 0 2 0 C3.625 2.75 3.625 2.75 5 6 C4.1875 8.375 4.1875 8.375 3 10 C0 3.375 0 3.375 0 0 Z " fill="#AD90EA" transform="translate(183,22)"/>
<path d="M0 0 C1.32 0 2.64 0 4 0 C4 0.99 4 1.98 4 3 C4.66 3.33 5.32 3.66 6 4 C3.69 4.33 1.38 4.66 -1 5 C-0.67 3.35 -0.34 1.7 0 0 Z " fill="#8646F7" transform="translate(158,182)"/>
<path d="M0 0 C0.66 0.33 1.32 0.66 2 1 C1.67 2.65 1.34 4.3 1 6 C-1.64 5.67 -4.28 5.34 -7 5 C-5.47058649 1.94117299 -3.05780454 1.31048766 0 0 Z " fill="#D2C6FC" transform="translate(84,65)"/>
<path d="M0 0 C0.66 0.66 1.32 1.32 2 2 C1.67 2.66 1.34 3.32 1 4 C1.66 4.33 2.32 4.66 3 5 C2.6875 6.9375 2.6875 6.9375 2 9 C1.01 9.33 0.02 9.66 -1 10 C-0.67 6.7 -0.34 3.4 0 0 Z " fill="#9567F0" transform="translate(149,99)"/>
<path d="M0 0 C0.66 0 1.32 0 2 0 C1.75 2.375 1.75 2.375 1 5 C-1.0625 6.3125 -1.0625 6.3125 -3 7 C-3 6.01 -3 5.02 -3 4 C-2.34 4 -1.68 4 -1 4 C-0.67 2.68 -0.34 1.36 0 0 Z " fill="#9D71E7" transform="translate(176,175)"/>
<path d="M0 0 C4.21878192 -0.19622241 7.17010894 0.19769832 11 2 C11 2.33 11 2.66 11 3 C3.57142857 3.28571429 3.57142857 3.28571429 0 1 C0 0.67 0 0.34 0 0 Z " fill="#9A7BEA" transform="translate(75,132)"/>
<path d="M0 0 C0.66 0.33 1.32 0.66 2 1 C0.875 2.5625 0.875 2.5625 -1 4 C-4.1875 3.6875 -4.1875 3.6875 -7 3 C-4.66785852 1.79371992 -2.50357861 0.8345262 0 0 Z " fill="#905FEE" transform="translate(97,138)"/>
<path d="M0 0 C0.66 0.33 1.32 0.66 2 1 C-0.57404971 4.86107457 -2.61020259 4.94319692 -7 6 C-4.74259377 3.66475218 -2.7194239 1.81294927 0 0 Z " fill="#D9D2F5" transform="translate(25,4)"/>
</svg>
